<?xml version="1.0" standalone="no"?>
<!DOCTYPE svg PUBLIC "-//W3C//DTD SVG 20010904//EN"
 "http://www.w3.org/TR/2001/REC-SVG-20010904/DTD/svg10.dtd">
<svg version="1.0" xmlns="http://www.w3.org/2000/svg"
 width="500.000000pt" height="500.000000pt" viewBox="0 0 500.000000 500.000000"
 preserveAspectRatio="xMidYMid meet">
<metadata>
Created by potrace 1.11, written by Peter Selinger 2001-2013
</metadata>
<g transform="translate(0.000000,500.000000) scale(0.100000,-0.100000)"
fill="#000000" stroke="none">
<path d="M1450 4554 c-577 -70 -994 -392 -1084 -837 -60 -293 -7 -594 145
-818 124 -185 269 -298 487 -380 l62 -24 0 -355 c0 -347 -1 -356 -23 -411 -27
-63 -96 -154 -219 -284 l-85 -89 -41 74 c-23 41 -56 112 -74 158 -17 45 -36
82 -42 81 -6 0 -103 -22 -216 -48 -240 -55 -225 -35 -154 -203 89 -210 233
-420 386 -563 296 -275 671 -405 1171 -405 334 0 564 44 792 149 201 94 411
280 510 453 l25 43 0 -327 0 -328 890 0 890 0 0 180 0 180 -710 0 -710 0 0
1660 0 1660 -180 0 -180 0 -2 -256 -3 -257 -34 84 c-156 390 -443 669 -812
789 -173 57 -282 72 -529 75 -124 2 -241 1 -260 -1z m856 -798 c57 -26 117
-83 145 -138 59 -116 13 -288 -96 -358 -148 -97 -352 -45 -426 107 -31 66 -33
179 -3 244 38 83 105 141 194 170 39 13 130 1 186 -25z m784 -873 l0 -706 -41
59 c-22 32 -73 91 -111 131 l-71 71 2 292 2 291 42 87 c39 82 42 92 41 168 -1
45 -12 119 -24 168 -12 48 -20 89 -18 91 3 3 159 53 171 54 4 1 7 -317 7 -706z
m-2202 630 c144 -168 172 -223 172 -345 0 -53 -4 -88 -10 -88 -20 0 -146 136
-172 186 -15 28 -34 77 -43 109 -16 64 -21 195 -6 195 5 0 31 -26 59 -57z
m1925 -80 c9 -38 19 -90 22 -118 l7 -49 -103 -96 c-57 -52 -152 -142 -211
-200 l-107 -105 -3 -225 c-1 -124 -1 -281 0 -350 l2 -125 125 -122 c69 -67
146 -139 170 -159 40 -32 44 -39 38 -67 -3 -18 -7 -33 -8 -35 -1 -1 -84 78
-184 176 l-181 179 0 377 0 376 163 163 c90 89 176 181 192 205 26 39 27 47
21 107 -4 36 -9 79 -12 94 -6 29 1 36 42 40 7 0 19 -29 27 -66z m-1185 -129
c21 -6 22 -11 22 -99 0 -65 4 -94 13 -97 6 -3 51 -3 98 -1 98 4 99 3 99 -89 0
-78 0 -78 -106 -78 l-94 0 0 -95 c0 -112 -5 -118 -103 -113 l-62 3 -3 102 -3
102 -102 3 -102 3 -3 49 c-6 95 -5 96 103 96 l95 0 1 28 c0 15 0 59 -1 99 -1
59 2 73 17 82 20 11 95 14 131 5z m626 -440 c56 -56 18 -154 -59 -154 -49 0
-74 15 -91 56 -12 29 -12 39 0 68 17 41 39 55 87 56 26 0 44 -7 63 -26z m474
-185 c24 -12 46 -27 49 -35 6 -16 -15 -56 -26 -49 -12 7 -33 -20 -23 -30 10
-12 -18 5 -53 31 -17 13 -54 34 -84 47 l-53 25 28 16 c41 22 110 20 162 -5z
m-118 -84 c27 -22 54 -50 61 -63 12 -21 9 -26 -31 -65 -24 -23 -38 -34 -31
-24 19 24 5 21 -32 -7 -66 -49 -75 -50 -97 -14 -23 37 -28 135 -9 171 34 65
61 66 139 2z m214 -52 c7 -32 -10 -120 -21 -109 -3 3 -14 23 -23 43 -16 36
-16 40 2 83 21 48 29 45 42 -17z m-68 -108 c26 -35 26 -36 8 -57 -43 -47 -137
-62 -197 -31 l-32 16 42 18 c23 10 66 34 95 53 29 20 54 36 55 36 1 0 14 -16
29 -35z m-1029 -147 c26 -11 68 -43 95 -71 85 -89 100 -209 40 -327 -100 -198
-407 -196 -509 4 -36 71 -38 178 -4 253 65 146 229 207 378 141z m508 26 c21
-9 45 -56 45 -92 0 -71 -104 -109 -155 -57 -56 55 -18 155 59 155 19 0 42 -3
51 -6z m-1 -398 c96 -40 110 -167 26 -228 -86 -63 -210 -1 -210 105 0 101 91
162 184 123z m931 -128 c-34 -51 -34 -53 -14 -56 20 -4 20 -5 -9 -35 l-31 -32
40 -17 c21 -9 39 -12 39 -7 0 5 10 30 21 55 22 46 65 86 107 99 19 5 22 3 22
-19 0 -57 -23 -129 -56 -171 -32 -43 -33 -45 -19 -79 31 -74 15 -138 -49 -194
-152 -133 -396 15 -321 194 14 34 14 37 -14 72 -31 39 -61 125 -61 174 0 32 0
32 45 14 38 -16 90 -82 100 -126 l6 -28 41 18 c60 27 81 70 33 70 l-25 0 30
60 30 60 60 0 61 0 -36 -52z m-1175 -133 c49 -25 70 -61 70 -121 0 -48 -4 -59
-33 -91 -29 -31 -41 -37 -88 -41 -49 -4 -59 -1 -87 23 -37 31 -62 74 -62 106
0 36 37 102 67 121 35 22 95 23 133 3z m511 0 c84 -44 92 -170 13 -230 -22
-16 -48 -20 -39 -5 3 5 -14 22 -39 37 -56 34 -69 61 -60 130 3 29 3 53 -2 53
-4 0 -19 -10 -32 -22 -14 -13 -21 -16 -17 -8 31 54 116 75 176 45z m-194 -137
c-2 -13 -4 -5 -4 17 -1 22 1 32 4 23 2 -10 2 -28 0 -40z m44 -75 c13 -16 12
-17 -3 -4 -10 7 -18 15 -18 17 0 8 8 3 21 -13z m-102 -51 c37 -20 71 -73 71
-110 0 -33 -24 -84 -52 -110 -56 -51 -158 -33 -198 35 -69 118 59 250 179 185z
m204 11 c-7 -2 -19 -2 -25 0 -7 3 -2 5 12 5 14 0 19 -2 13 -5z"/>
<path d="M2075 3736 c-93 -44 -148 -132 -149 -241 -1 -81 25 -144 78 -193 104
-96 273 -94 378 5 68 65 94 217 51 298 -72 134 -229 192 -358 131z m221 -61
c25 -14 57 -45 72 -67 23 -36 27 -52 27 -114 0 -64 -3 -77 -30 -116 -40 -58
-101 -88 -178 -88 -150 0 -238 123 -196 275 13 48 80 116 130 133 50 16 124 7
175 -23z"/>
<path d="M1555 2290 c-82 -21 -142 -67 -178 -134 -18 -34 -22 -57 -22 -137 0
-87 2 -99 27 -136 52 -79 128 -118 228 -118 125 1 219 68 255 181 52 167 -55
321 -240 347 -22 3 -53 2 -70 -3z m135 -71 c93 -42 134 -108 128 -203 -5 -83
-39 -135 -109 -170 -93 -46 -190 -28 -256 47 -31 35 -53 90 -53 133 0 42 34
118 69 153 61 61 142 76 221 40z"/>
</g>
</svg>
